<svg fill="#39705F" width="800" height="800" viewBox="0 0 24 24" data-name="Flat Color" xmlns="http://www.w3.org/2000/svg" class="icon flat-color"><path d="m22 6.76-1-4A1 1 0 0 0 20 2h-4a1 1 0 0 0 0 2h2.12C13.79 9.69 5.9 11 3 11a1 1 0 0 0 0 2c3.16 0 11.71-1.45 16.56-7.63L20 7.24a1 1 0 1 0 2-.48M23 11v10a1 1 0 0 1-1 1h-3a1 1 0 0 1-1-1V11a1 1 0 0 1 1-1h3a1 1 0 0 1 1 1m-9 3h-3a1 1 0 0 0-1 1v6a1 1 0 0 0 1 1h3a1 1 0 0 0 1-1v-6a1 1 0 0 0-1-1m-8 2H3a1 1 0 0 0-1 1v4a1 1 0 0 0 1 1h3a1 1 0 0 0 1-1v-4a1 1 0 0 0-1-1" style="fill:#39705f"/></svg>